# xmcd
# 
# Track frame offsets:
#     153
#     18563
#     32480
#     51872
#     64811
#     75650
#     99112
#     118752
#     134131
#     150934
#     164746
#     182469
#     194481
#     210093
#     223496
#     239470
#     256220
#     270549
#     290197
#     301615
# 
# Disc length: 4264
# 
# Revision: 0
# Processed by: cddbd v1.5.2PL0 Copyright (c) Steve Scherf et al.
# Submitted via: fre:ac v1.0.17
# 
DISCID=1e10a614
DTITLE=Saban Saulic - Najlepse pesme
DYEAR=2000
DGENRE=Country
TTITLE0=Uvenuce narcis beli
TTITLE1=Tebi ne mogu da kazem ne
TTITLE2=Plave kose
TTITLE3=Srecno ti bilo
TTITLE4=Ti si oluja
TTITLE5=Lepotice grada
TTITLE6=Vidjas li mi staru ljubav
TTITLE7=Ja sam nasem sinu i otac i majka
TTITLE8=Jos uvek sam isti
TTITLE9=Ljubavi veruj mi
TTITLE10=Gordana
TTITLE11=Dajem ti sve
TTITLE12=Ti si bila za mene
TTITLE13=Vreme za zaljubljene
TTITLE14=Prodje zivot kao san
TTITLE15=Lepo moje oko plavo
TTITLE16=Dve su zene ispred mene
TTITLE17=Miluju me tvoji prsti mali
TTITLE18=Ljubav je pesma i mnogo vise
TTITLE19=Izdrzi moj bol
EXTD=
EXTT0=
EXTT1=
EXTT2=
EXTT3=
EXTT4=
EXTT5=
EXTT6=
EXTT7=
EXTT8=
EXTT9=
EXTT10=
EXTT11=
EXTT12=
EXTT13=
EXTT14=
EXTT15=
EXTT16=
EXTT17=
EXTT18=
EXTT19=
PLAYORDER=
